<?xml version="1.0" encoding="UTF-8"?>
<svg width="1440px" height="318px" viewBox="0 0 1440 318" version="1.1" xmlns="http://www.w3.org/2000/svg" xmlns:xlink="http://www.w3.org/1999/xlink">
    <title>Camo-fade@1x</title>
    <defs>
        <rect id="path-1" x="0" y="0" width="1439.40153" height="318"></rect>
        <rect id="path-3" x="0" y="0" width="1439.69869" height="1193.49832"></rect>
        <linearGradient x1="50%" y1="0%" x2="50%" y2="100%" id="linearGradient-5">
            <stop stop-color="#000000" stop-opacity="0" offset="0%"></stop>
            <stop stop-color="#000000" offset="100%"></stop>
        </linearGradient>
    </defs>
    <g id="50.-Blog" stroke="none" stroke-width="1" fill="none" fill-rule="evenodd">
        <g id="50.15-Desktop" transform="translate(0.000000, -75.000000)">
            <g id="Group" transform="translate(0.000000, 75.000000)">
                <g id="Camo-fade" transform="translate(0.598468, 0.000000)">
                    <mask id="mask-2" fill="white">
                        <use xlink:href="#path-1"></use>
                    </mask>
                    <g id="Rectangle"></g>
                    <g id="graffitti-bg" opacity="0.8" mask="url(#mask-2)">
                        <g transform="translate(0.000000, -882.757331)">
                            <mask id="mask-4" fill="white">
                                <use xlink:href="#path-3"></use>
                            </mask>
                            <use id="mask" stroke="none" fill="#000000" fill-rule="evenodd" xlink:href="#path-3"></use>
                            <path d="M830.136897,2138.45564 C782.611268,2128.60241 768.929648,2033.10187 803.493742,1958.06574 C814.295021,1935.32751 838.77792,1898.18842 857.500138,1875.45019 C876.94244,1852.71197 892.784316,1830.73169 892.784316,1826.18404 C892.784316,1815.57287 899.985169,1814.05699 827.256556,1839.82698 C712.762996,1879.99784 642.194639,1878.48196 578.827134,1832.24757 C537.062188,1802.68788 518.33997,1766.30672 518.33997,1716.28263 C518.33997,1646.55208 565.145514,1596.52799 678.198903,1545.74595 C743.006578,1516.18626 750.927516,1508.60686 744.446749,1481.32099 C737.245896,1450.24542 727.884787,1450.24542 704.121973,1480.56305 C670.277965,1523.00773 580.98739,1560.90477 305.914813,1650.34178 C-6.60219933,1751.1479 -28.924843,1749.63202 81.2482049,1630.63532 C147.496051,1558.63095 154.696904,1553.32536 205.102873,1541.95625 L241.107137,1533.6189 L246.147734,1497.23775 C251.908416,1454.79306 279.271657,1395.67368 315.275921,1347.92341 C353.440441,1298.65726 501.778009,1144.79528 562.265172,1093.25531 C626.352762,1038.68358 633.553615,1026.55652 617.711739,1009.88183 C608.35063,1000.0286 601.869863,999.270656 582.42756,1006.09212 C543.542955,1019.73506 466.49383,1084.91796 428.32931,1137.21588 C408.887008,1163.7438 380.083596,1200.8829 363.521635,1219.83142 C347.679759,1238.77994 296.553704,1305.47873 250.468246,1367.62987 C-0.841517085,1705.67146 -0.121431804,1704.91352 -107.414139,1710.2191 C-158.540194,1712.49293 -171.501729,1710.97704 -179.422667,1701.12381 C-192.384202,1685.20706 -185.903434,1676.86971 -111.73465,1618.50827 C-53.4077426,1571.51594 115.092213,1404.01103 115.092213,1391.88398 C115.092213,1383.54663 90.6093136,1384.30457 82.6883755,1392.64192 C50.2845378,1424.47543 -57.7282543,1464.64629 -165.020961,1484.35275 C-303.99742,1510.12274 -571.149059,1503.30127 -752.61055,1469.95188 C-862.063513,1449.48748 -864.223769,1448.72954 -864.223769,1416.89602 C-864.223769,1373.6934 -793.655411,1332.00666 -697.884069,1317.60578 C-654.678952,1310.78431 -638.116991,1312.3002 -585.550765,1325.94313 C-535.864881,1338.82812 -518.582834,1340.344 -494.099934,1334.28048 C-478.258058,1329.73283 -443.693965,1322.15343 -417.770895,1317.60578 C-291.035885,1293.35168 -183.743178,1263.03405 -111.73465,1230.44259 C-30.3650136,1193.30349 12.120018,1169.80733 74.0473521,1128.12059 C159.737501,1069.00121 164.058012,1056.11621 95.6499105,1062.17974 C38.7631734,1066.72738 -9.48254045,1086.43384 -44.7667192,1119.78324 C-59.8885101,1133.42617 -78.6107274,1143.2794 -89.4120066,1143.2794 C-105.253883,1143.2794 -108.134224,1140.24764 -108.134224,1120.54118 C-108.134224,1106.89825 -111.73465,1097.80296 -116.775247,1097.80296 C-121.815844,1098.5609 -145.578659,1123.57294 -168.621388,1154.64851 C-240.629916,1249.39111 -244.950427,1253.18082 -302.55725,1253.18082 C-340.001684,1253.18082 -355.123475,1250.14905 -364.484584,1240.29582 C-376.005948,1228.16877 -376.005948,1225.13701 -366.64484,1206.18849 C-351.523049,1175.11292 -205.345737,1019.73506 -157.100023,982.595959 C-134.057294,965.163321 -115.335077,948.488624 -115.335077,945.456861 C-115.335077,943.183038 -145.578659,938.635394 -182.303008,936.361571 C-300.396994,929.540104 -360.884157,885.579539 -381.766631,792.352824 C-391.127739,748.392259 -386.807228,702.157872 -365.204669,639.248788 C-355.843561,609.689097 -298.236738,524.04179 -270.153412,496.755922 C-197.424799,424.751548 -51.2474867,338.3463 70.4469257,293.627794 C134.534516,270.13163 213.743897,256.488696 286.47251,256.488696 C343.359247,256.488696 359.201123,259.520459 392.325046,275.437215 C413.207519,286.048386 440.57076,306.512787 452.81221,320.913662 C465.05366,335.314537 476.575024,347.441589 478.73528,347.441589 C481.615621,347.441589 515.459629,323.945425 554.344234,294.385735 C620.59208,245.119584 648.675406,232.234591 658.036515,247.393407 C664.517282,258.762518 596.829266,340.620122 544.26304,385.338628 L494.577156,427.783311 L493.136986,470.985935 C491.696815,494.482099 493.857071,514.18856 496.737412,514.18856 C505.378435,514.18856 566.585684,436.12066 618.431824,361.084523 C668.117709,287.564268 674.598476,280.742801 681.079244,298.175439 C687.560011,314.850136 619.15191,456.585061 571.626281,527.073553 C550.023723,558.149125 531.301505,586.950874 530.58142,590.740578 C529.861335,594.530282 555.784405,599.077926 588.188243,600.593808 C620.59208,602.86763 654.436088,608.173216 662.357027,612.72086 C674.598476,619.542327 681.799329,618.784387 695.480949,608.931157 C716.363423,594.530282 716.363423,594.530282 696.92112,564.970592 C659.476685,510.398856 645.795065,467.954172 661.636941,458.100942 C664.517282,455.82712 686.119841,476.291521 708.442484,502.819448 C731.485213,530.105316 754.527942,552.085598 761.00871,552.085598 C774.69033,552.085598 808.534338,526.315612 856.059967,479.323284 L889.18389,446.731831 L889.903975,327.735129 C889.903975,243.603703 892.784316,207.222546 898.544999,204.948723 C925.188154,195.853434 993.596256,239.056058 993.596256,264.826045 C993.596256,271.647512 997.916767,281.500742 1003.67745,286.048386 C1011.59839,292.869853 1020.23941,286.806327 1046.16248,254.972814 C1085.04709,206.464605 1249.22653,-24.7073316 1330.59617,-146.735796 C1391.80342,-237.688689 1434.28845,-281.649254 1460.9316,-281.649254 C1482.53416,-281.649254 1486.85467,-263.458676 1472.45297,-230.109282 C1465.9722,-214.950466 1458.05126,-195.244006 1454.45084,-186.906657 C1429.24785,-128.545218 1373.80128,98.8370148 1350.75855,233.750473 C1343.5577,273.163393 1334.91668,320.155721 1331.31625,337.588359 C1327.71583,355.020997 1324.83548,381.548924 1324.83548,396.707739 C1324.83548,420.961844 1322.67523,423.993607 1308.99361,421.719785 C1293.15173,419.445963 1292.43165,416.4142 1290.27139,317.123958 C1289.55131,261.036341 1285.23079,211.77019 1281.63037,207.980486 C1276.58977,202.674901 1251.38679,223.897243 1207.46158,268.615748 C1171.45732,306.512787 1121.05135,354.263056 1097.28854,374.727457 C1072.80564,395.191858 1039.68171,423.235667 1023.83984,436.878601 C1004.39753,453.553298 990.715915,474.017699 982.794976,497.513863 C967.673186,541.474428 962.632589,555.117361 946.790712,592.256459 C934.549263,622.57409 935.989433,643.038491 951.831309,643.038491 C956.871906,643.038491 990.715915,637.732906 1026.00009,631.66938 C1142.65391,611.96292 1208.90175,580.887348 1391.08333,461.132705 C1483.97433,399.739503 1509.17732,386.096569 1523.57902,389.886272 C1533.66022,392.918036 1543.74141,398.981562 1545.18158,404.287147 C1553.10252,426.26743 1448.69015,603.625571 1372.36111,697.610227 C1334.19659,743.844615 1324.83548,760.519312 1324.83548,780.983712 C1325.55557,812.059284 1349.31838,887.853362 1360.83975,891.643066 C1365.16026,893.158947 1379.56197,882.547776 1391.80342,868.146902 C1423.48717,833.281626 1504.8568,713.526984 1504.8568,702.157872 C1504.8568,696.852286 1492.61536,680.177589 1478.21365,664.260833 C1457.33118,641.52261 1453.73075,633.185261 1460.21152,626.363794 C1466.69229,619.542327 1476.05339,619.542327 1501.25638,626.363794 C1519.25851,631.66938 1536.54056,635.459084 1539.4209,635.459084 C1553.8226,635.459084 1620.79054,474.017699 1651.7542,366.390108 C1697.83966,206.464605 1698.55975,203.432842 1718.00205,203.432842 C1725.92299,203.432842 1728.08324,217.833717 1728.08324,266.341926 L1728.80333,328.49307 L1744.6452,294.385735 C1753.28623,275.437215 1764.80759,260.2784 1770.56827,260.2784 C1775.60887,260.2784 1800.09177,293.627794 1824.57467,333.798655 C1877.86098,423.235667 1977.23275,552.085598 1992.35454,552.085598 C2014.67718,552.085598 1990.19428,248.151348 1955.63019,93.5314294 C1949.14942,64.7296799 1941.22849,27.5905819 1939.06823,11.6738256 C1936.90797,-4.24293064 1931.86738,-18.6438054 1928.98704,-20.9176277 C1919.62593,-26.9811539 1921.0661,-57.2987849 1931.14729,-67.9099558 C1945.549,-83.0687713 1977.95283,-78.5211266 2000.99556,-57.2987849 C2013.23701,-46.687614 2023.31821,-34.5605616 2023.31821,-30.012917 C2023.31821,-23.9493908 2080.20494,105.658482 2103.24767,151.892869 C2154.37373,255.730755 2203.33953,348.957471 2217.02115,367.148049 C2279.66857,454.311238 2297.6707,482.355047 2331.51471,552.085598 C2388.40144,668.808478 2438.08733,731.717562 2523.77748,796.142528 C2563.38217,825.702218 2678.59581,885.579539 2695.87786,885.579539 C2701.63854,885.579539 2708.11931,888.611303 2710.27956,892.401006 C2712.43982,896.19071 2724.68127,900.738355 2737.64281,903.012177 C2750.60434,905.286 2790.92912,912.865407 2826.2133,918.928934 C2935.66626,938.635394 3028.55726,934.087749 3154.57218,901.496296 C3214.33926,886.33748 3284.18753,845.408678 3320.1918,803.721936 C3354.75589,764.309015 3355.47598,762.035193 3355.47598,715.042865 C3355.47598,671.0823 3354.03581,665.776715 3333.87342,647.586136 C3305.07001,622.57409 3274.10634,616.510564 3186.25594,617.268505 C3065.28161,618.026446 2914.0637,649.102018 2644.7518,727.169917 C2533.85867,759.00343 2497.85441,762.793134 2484.17279,745.360496 C2471.21125,729.44374 2480.57236,711.253161 2502.17492,711.253161 C2541.05952,711.253161 2641.87146,647.586136 2729.00178,568.002355 C2775.08724,525.557671 2915.50387,386.854509 2954.38848,344.409826 C2965.18975,332.282774 2971.67052,319.39778 2968.79018,316.366017 C2965.18975,312.576313 2941.42694,317.881899 2916.22396,327.735129 C2859.33722,350.473352 2793.80946,368.663931 2660.59368,399.739503 C2605.14711,412.624496 2546.10012,427.02537 2528.81807,430.815074 C2473.37151,444.458008 2448.16852,437.636541 2448.16852,408.076851 C2448.16852,392.160095 2493.5339,346.683648 2534.57876,322.429543 C2586.4249,291.353972 2626.02959,279.226919 2710.99965,267.099867 C2806.77099,254.214874 2834.85432,247.393407 2923.42481,217.833717 C3035.03803,179.936678 3258.98455,60.1820353 3334.5935,-2.72704909 C3384.27939,-42.8979102 3395.80075,-24.7073316 3355.47598,30.622345 C3313.71103,88.9837847 3249.62344,227.686947 3190.57645,389.128332 C3160.33287,470.985935 3153.13201,474.775639 3126.48886,425.509489 C3113.52732,400.497443 3112.08715,390.644213 3117.84783,373.969516 C3121.44826,363.358345 3125.04869,346.683648 3125.04869,337.588359 C3125.04869,324.703366 3109.20681,337.588359 3051.59999,398.223621 C3010.55513,440.668304 2961.58933,489.176514 2941.42694,507.367093 C2921.98464,524.79973 2904.70259,542.232368 2903.26242,545.264131 C2899.66199,554.359421 2925.58506,553.60148 2934.94617,545.264131 C2947.90771,531.621197 3088.32434,491.450336 3161.77304,479.323284 C3266.90549,462.648587 3374.91828,468.712113 3431.80502,495.24004 C3483.65116,519.494145 3495.17252,529.347375 3526.85627,582.403229 C3551.33917,621.81615 3552.77934,626.363794 3552.77934,696.094346 C3553.49943,762.035193 3552.05926,771.130482 3531.89687,808.26958 C3439.72595,984.11184 3136.57005,1053.08445 2786.6086,977.290373 C2725.40136,963.647439 2595.78601,913.623348 2534.57876,880.273954 C2451.76895,834.039567 2386.96127,782.499594 2322.87368,710.49522 C2268.1472,649.102018 2253.7455,640.006728 2253.7455,665.018774 C2253.7455,690.030819 2198.29893,846.166619 2163.73484,918.170993 C2145.7327,955.310091 2131.331,990.933307 2131.331,996.996833 C2131.331,1002.30242 2141.41219,1009.12389 2152.93356,1012.15565 C2178.85663,1017.46123 2196.13867,1046.26298 2196.13867,1084.16002 C2196.13867,1131.15235 2191.81816,1129.63647 2373.99974,1121.29912 C2543.93987,1112.20383 2583.54456,1114.47765 2590.02532,1133.42617 C2597.22618,1153.13263 2574.90353,1166.01763 2476.25185,1200.8829 C2309.19206,1260.00228 2198.29893,1332.7646 2066.52332,1469.19394 C2024.03829,1513.1545 1966.43147,1583.64299 1937.62806,1626.84562 C1908.82465,1669.2903 1880.74132,1704.15558 1875.70072,1704.15558 C1870.66013,1704.15558 1854.09817,1689.7547 1840.41655,1672.32206 C1805.85245,1629.87738 1804.41228,1582.88505 1835.37595,1535.13478 C1854.09817,1506.33303 1910.26482,1447.21365 1948.42934,1416.13808 C2020.43787,1356.26076 2232.86302,1238.022 2335.11513,1199.36702 C2350.23692,1194.06143 2369.67923,1183.45026 2378.32025,1176.6288 C2393.44204,1165.25969 2392.00187,1164.50174 2343.75616,1169.04939 C2316.39292,1171.32321 2145.7327,1175.11292 1965.71138,1178.14468 L1638.07258,1182.69232 L1621.51062,1200.8829 C1601.34823,1223.62113 1597.74781,1223.62113 1560.30337,1201.64084 C1535.10039,1186.48203 1515.65808,1182.69232 1440.04913,1178.90262 C1368.0406,1175.11292 1345.71796,1176.6288 1329.156,1184.96615 C1318.35472,1191.02967 1305.39318,1194.06143 1300.35259,1191.02967 C1290.99148,1184.2082 1200.98082,1150.85881 1193.77996,1150.85881 C1182.2586,1150.85881 1188.73937,1168.29145 1212.50218,1199.36702 C1244.90602,1240.29582 1277.30986,1249.39111 1391.80342,1249.39111 C1482.53416,1249.39111 1540.86107,1244.08553 1738.88452,1216.79966 C1802.25203,1208.46231 1883.62166,1200.12496 1918.90584,1197.85114 C1977.23275,1195.57732 1985.87377,1196.33526 2003.8759,1211.49407 C2046.36094,1246.35935 2018.9977,1277.43492 1928.98704,1297.89932 C1626.55122,1365.35605 1528.61962,1415.38014 1386.76282,1576.06359 C1340.67736,1628.3615 1330.59617,1636.69885 1312.59404,1634.42503 C1294.5919,1632.1512 1292.43165,1629.11944 1290.27139,1599.55975 C1288.11114,1570.758 1291.71156,1560.90477 1317.63463,1525.28155 C1333.47651,1502.54333 1349.31838,1484.35275 1352.19873,1484.35275 C1355.07907,1484.35275 1373.80128,1468.436 1393.24359,1450.24542 C1413.40597,1431.2969 1451.57049,1400.22133 1478.93373,1379.75692 C1505.57689,1360.05046 1536.54056,1336.5543 1547.34184,1327.45901 L1566.06405,1310.78431 L1440.04913,1310.02637 C1305.39318,1310.02637 1206.02141,1297.14138 1136.89323,1272.12933 C1086.48726,1253.18082 1084.327,1253.18082 1074.24581,1275.91904 C1048.32274,1335.79636 1087.20734,1352.47106 1274.42952,1360.05046 C1387.4829,1365.35605 1411.24572,1371.41958 1411.24572,1397.9475 C1411.24572,1413.10632 1391.80342,1420.68573 1332.03634,1431.2969 C1275.1496,1440.39219 1231.2244,1451.7613 1148.41459,1476.0154 C1121.05135,1483.59481 1065.60478,1499.51157 1026.00009,1510.88068 C986.395403,1521.49185 947.510798,1536.65067 939.58986,1544.23007 C907.906107,1573.78976 885.583464,1582.88505 847.418944,1582.88505 C800.6134,1582.88505 753.807857,1607.13916 707.722399,1656.40531 C671.718135,1694.30235 668.117709,1718.55645 694.760864,1745.84232 C717.803593,1770.85436 760.288625,1770.85436 842.378347,1747.3582 C943.190286,1717.79851 1049.76291,1652.6156 1137.61331,1567.72624 C1177.218,1529.8292 1201.7009,1516.18626 1216.10261,1526.03949 C1231.94448,1535.89272 1222.58337,1555.59918 1172.89749,1613.20268 C1100.16888,1697.33411 1043.28214,1784.4973 995.756511,1886.06136 C950.391139,1982.31984 952.551395,1977.01426 923.747983,2067.20921 C899.985169,2141.4874 888.463805,2150.58269 830.136897,2138.45564 Z M596.829266,1464.64629 C691.880523,1432.05484 727.164702,1391.12604 727.164702,1311.54226 C727.164702,1285.01433 724.284361,1264.54993 720.683934,1266.06581 C717.083508,1267.58169 688.280097,1293.35168 655.876259,1324.42725 C624.192507,1354.74488 570.906196,1402.49515 538.502358,1429.02308 C505.378435,1456.30894 477.295109,1482.07893 475.854939,1485.86863 C472.254512,1497.23775 532.741676,1486.62657 596.829266,1464.64629 Z M851.739455,1479.04717 C907.186022,1463.13041 915.10696,1456.30894 931.668922,1407.80073 L945.350542,1369.14575 L901.42534,1326.70107 C858.220223,1283.49845 813.574935,1210.73613 813.574935,1181.93438 C813.574935,1137.97382 794.132633,1131.91029 776.130501,1170.56527 C765.329222,1191.78761 763.168966,1216.79966 763.168966,1301.68903 C763.168966,1400.97927 765.329222,1415.38014 788.371951,1482.83687 C792.692462,1494.96392 797.733059,1494.20598 851.739455,1479.04717 Z M1059.12402,1431.2969 C1062.72444,1431.2969 1065.60478,1428.26513 1065.60478,1424.47543 C1065.60478,1413.10632 1036.08129,1406.28485 1028.16035,1414.6222 C1018.07916,1425.23337 1028.16035,1441.15013 1041.84197,1435.84454 C1047.60265,1433.57072 1055.52359,1431.2969 1059.12402,1431.2969 Z M493.136986,1360.05046 C625.632677,1258.4864 664.517282,1223.62113 706.282229,1169.04939 C761.728795,1096.28707 794.852718,1045.50504 790.532206,1040.19946 C781.171098,1031.10417 706.282229,1072.79091 651.555747,1117.50942 C551.463893,1199.36702 395.925321,1384.30457 395.925321,1422.20161 C395.925321,1434.32866 395.205387,1435.0866 493.136986,1360.05046 Z M-129.016697,1385.06251 C-4.44194349,1368.38781 111.491787,1320.63754 172.699036,1260.00228 C224.545176,1209.22025 256.228928,1128.12059 224.545176,1128.12059 C217.344323,1128.12059 205.102873,1134.18411 197.181935,1141.76352 C178.459718,1160.71204 81.2482049,1234.99024 50.2845378,1254.6967 C2.75890932,1285.77227 -133.337209,1353.98694 -162.860705,1362.32429 C-179.422667,1366.87193 -196.704713,1375.96722 -201.74531,1382.03075 C-212.54659,1396.43162 -210.386334,1396.43162 -129.016697,1385.06251 Z M971.993697,1216.04172 C971.993697,1194.81938 963.352674,1181.17644 949.671054,1181.17644 C933.109092,1181.17644 932.389007,1187.99791 947.510798,1209.97819 C959.752247,1228.92671 971.993697,1231.95847 971.993697,1216.04172 Z M1180.81843,1212.25201 C1180.81843,1200.8829 1109.52999,1141.76352 1101.60905,1147.06911 C1091.52785,1153.89057 1092.24794,1178.90262 1103.04922,1186.48203 C1114.57058,1194.06143 1167.85689,1218.31554 1175.77783,1218.31554 C1178.65817,1219.07348 1180.81843,1216.04172 1180.81843,1212.25201 Z M492.4169,981.080077 C516.179715,968.195084 550.023723,957.583913 571.626281,955.310091 C606.190375,953.036268 609.790801,953.794209 632.83353,979.564196 C660.196771,1009.88183 699.801461,1017.46123 708.442484,994.723011 C722.124105,956.825972 707.002314,924.99246 685.399755,947.730683 C678.918988,954.55215 672.43822,954.55215 658.036515,946.972742 L639.314298,937.877453 L678.918988,893.916888 C717.803593,850.714264 781.891183,754.455785 804.213827,705.947576 C815.015106,681.693471 815.015106,679.419649 799.17323,661.987011 C779.730927,640.006728 755.248028,637.732906 740.846322,655.165544 C733.645469,664.260833 733.645469,670.324359 740.126237,681.693471 C763.168966,720.34845 735.08564,796.142528 677.478817,848.440441 C616.991654,903.770118 497.457497,961.373617 393.045131,984.11184 C331.837883,997.754774 328.237456,1000.0286 294.393448,1038.68358 C260.54944,1078.0965 249.028075,1112.96177 266.310122,1124.33088 C270.630634,1126.60471 273.510975,1138.73176 273.510975,1150.10087 C273.510975,1161.46998 275.671231,1173.59703 278.551572,1175.87086 C280.711828,1178.90262 320.316518,1141.00558 366.401976,1091.73943 C426.88914,1027.31446 461.453233,996.996833 492.4169,981.080077 Z M2112.60878,1116.75148 C2111.8887,1112.96177 2101.8075,1104.62442 2091.00622,1097.80296 C2079.48486,1091.73943 2057.16222,1078.0965 2041.32034,1067.48533 C2025.47846,1056.87415 2006.03616,1044.7471 1998.11522,1040.9574 C1971.47207,1026.55652 1976.51266,1008.36595 2010.35667,998.512715 C2027.63872,993.96507 2044.92077,988.659485 2049.96136,987.143603 C2060.76264,984.11184 2103.24767,890.885125 2127.01049,817.36487 C2181.73697,646.828195 2196.13867,527.073553 2166.61518,483.112988 C2146.45279,452.795357 2131.331,454.311238 2131.331,486.902692 C2131.331,535.410901 2074.44426,746.118437 2034.11949,847.682501 C1988.75411,962.889499 1957.79045,1019.73506 1910.26482,1078.0965 C1897.30328,1094.77119 1888.66226,1110.68795 1891.5426,1113.71971 C1903.06397,1125.84677 2114.04895,1128.87853 2112.60878,1116.75148 Z M971.993697,1090.22355 C971.993697,1072.03297 969.113356,1067.48533 956.871906,1067.48533 C938.869774,1067.48533 903.585596,1047.77887 876.94244,1022.76682 C856.059967,1003.06036 832.297153,1005.33418 836.617664,1027.31446 C838.77792,1038.68358 950.391139,1111.44589 966.9531,1112.96177 C969.833441,1112.96177 971.993697,1103.10854 971.993697,1090.22355 Z M1373.0812,1078.85444 C1375.24145,1070.51709 1310.43378,1029.58829 1293.87182,1029.58829 C1260.02781,1029.58829 1290.27139,1079.61238 1326.99574,1084.91796 C1358.67949,1089.46561 1370.20086,1087.94973 1373.0812,1078.85444 Z M1838.25629,1050.81063 C1918.90584,960.615676 1966.43147,841.618975 1988.03403,681.693471 C1994.5148,628.637617 1994.5148,624.847913 1979.39301,608.173216 C1952.02976,577.097644 1936.90797,587.708815 1936.90797,637.732906 C1936.90797,659.713188 1908.82465,770.372542 1894.42294,805.995758 C1890.82252,814.333107 1882.90158,834.797508 1877.1409,851.472205 C1871.38021,868.146902 1857.69859,901.496296 1847.6174,924.99246 C1837.5362,948.488624 1828.89518,975.016551 1828.89518,983.353899 C1828.89518,991.691248 1823.1345,1003.06036 1815.93365,1008.36595 C1795.05117,1024.2827 1762.64734,1073.54885 1767.68793,1082.64414 C1777.76913,1100.07678 1804.41228,1088.70767 1838.25629,1050.81063 Z M87.7289724,1031.10417 C165.498183,1031.86211 196.46185,1029.58829 204.382788,1022.76682 C228.865687,1001.54448 217.344323,993.96507 153.256733,989.417426 C117.972554,987.143603 69.0067551,979.564196 43.8037703,971.984788 L-2.28168765,959.099795 L-44.7667192,1005.33418 C-67.8094482,1030.34623 -86.5316655,1053.84239 -86.5316655,1058.39004 C-86.5316655,1062.17974 -71.4098746,1057.6321 -51.967572,1047.77887 C-20.2838197,1031.10417 -10.922711,1029.58829 87.7289724,1031.10417 Z M1203.14107,1003.06036 C1211.06201,924.234519 1238.42525,862.841316 1262.18807,872.694546 C1270.109,875.726309 1272.26926,884.821599 1269.38892,910.591585 C1265.06841,951.520387 1272.26926,958.341854 1306.83335,943.183038 C1347.15813,924.99246 1346.43804,912.107467 1302.51284,865.873079 C1281.63037,843.134856 1262.18807,825.702218 1259.30772,826.460159 C1256.42738,827.976041 1235.54491,846.92456 1212.50218,869.662783 C1188.73937,892.401006 1149.85476,928.024223 1125.37186,948.488624 C1100.16888,968.953025 1080.00649,990.175366 1080.00649,995.480952 C1080.00649,1007.608 1164.25647,1051.56857 1184.41886,1050.05269 C1196.6603,1048.53681 1199.54065,1040.9574 1203.14107,1003.06036 Z M1524.29911,1035.65181 C1527.89953,1030.34623 1535.10039,1009.12389 1539.4209,988.659485 C1555.98286,919.686874 1597.74781,840.103093 1617.19011,840.103093 C1634.47216,840.103093 1635.91233,856.77779 1620.07045,896.19071 C1609.26917,924.99246 1605.66874,948.488624 1607.10891,981.080077 C1609.26917,1021.25094 1610.70934,1025.79858 1625.83113,1028.07241 C1647.43369,1031.86211 1656.07471,1023.52476 1702.16017,953.794209 C1787.85032,824.944277 1850.49774,661.987011 1850.49774,564.970592 C1850.49774,504.33533 1842.5768,484.628869 1796.49134,438.394482 C1777.76913,419.445963 1754.7264,391.402154 1745.36529,375.485398 C1725.92299,344.409826 1713.68154,344.409826 1713.68154,374.727457 C1713.68154,392.918036 1699.99992,461.132705 1683.43795,525.557671 C1679.11744,542.232368 1666.15591,583.919111 1653.91446,618.026446 C1642.39309,652.133781 1634.47216,685.483175 1636.63241,692.304642 C1643.11318,708.979339 1663.27557,706.705517 1663.27557,688.514938 C1663.27557,680.177589 1666.15591,673.356122 1669.75633,673.356122 C1680.55761,673.356122 1748.96572,755.213726 1753.28623,774.162246 C1761.20716,805.995758 1754.7264,828.733981 1737.44435,831.007804 C1722.32256,833.281626 1659.67514,802.206054 1612.14951,768.85666 L1592.70721,755.971667 L1558.8632,814.333107 C1539.4209,846.166619 1505.57689,896.948651 1481.81408,927.266282 C1458.77135,957.583913 1440.04913,987.143603 1440.04913,992.449189 C1440.04913,1006.85006 1484.69442,1043.98916 1501.97646,1044.7471 C1510.61749,1044.7471 1520.69868,1040.19946 1524.29911,1035.65181 Z M941.03003,959.857735 C956.151821,950.762446 972.713783,938.635394 977.754379,931.813927 C988.555659,917.413052 989.275744,883.305717 978.474465,887.095421 C965.51293,891.643066 894.224487,956.068032 889.903975,967.437143 C884.143293,981.838018 910.786448,978.048314 941.03003,959.857735 Z M869.021502,874.968369 C950.391139,809.785462 1051.20308,720.34845 1051.20308,712.011102 C1051.20308,708.979339 1014.47873,707.463457 970.553527,708.221398 L889.18389,709.73728 L851.01937,762.035193 C788.371951,847.682501 778.290757,865.115139 773.25016,899.222473 C768.929648,928.024223 769.649733,931.055986 783.331354,931.055986 C791.972377,931.055986 830.136897,906.04394 869.021502,874.968369 Z M276.391316,917.413052 C299.434045,912.865407 307.354983,906.801881 318.876348,883.305717 C335.438309,849.198382 344.079332,847.682501 353.440441,878.000132 C362.80155,904.528059 359.921209,904.528059 410.327178,886.33748 C490.256644,857.535731 534.181847,831.007804 581.707475,784.015476 C628.513018,737.023148 619.871995,730.959621 549.303637,765.066956 C457.852807,809.027521 461.453233,807.51164 407.446837,821.154574 C343.359247,837.07133 329.677627,827.976041 368.562232,792.352824 C418.248116,746.118437 435.530163,695.336405 387.284449,737.023148 C349.119929,768.85666 230.305858,851.472205 183.500315,878.000132 C159.737501,891.643066 137.414857,904.528059 133.81443,906.04394 C110.771701,921.202756 213.743897,928.782164 276.391316,917.413052 Z M-46.9269751,882.547776 C-23.1641608,875.726309 1.31873876,865.115139 7.079421,859.051612 C13.5601885,852.988086 21.4811266,847.682501 23.6413825,847.682501 C26.5217236,847.682501 58.2054759,827.976041 94.20974,804.479877 C153.976818,765.824897 159.017415,760.519312 146.775965,751.424022 C139.575113,746.118437 126.613578,741.570792 117.972554,741.570792 C98.5302517,741.570792 20.0409561,722.622273 -27.4846725,706.705517 C-46.2068898,700.64199 -72.8500452,692.304642 -86.5316655,687.756997 C-127.576526,674.872004 -154.939767,659.713188 -168.621388,643.796432 C-180.142752,630.153498 -180.142752,627.879676 -169.341473,610.447038 C-156.379938,588.466756 -139.097891,582.403229 -92.2923477,582.403229 C-13.8030521,582.403229 164.778097,528.589434 273.510975,471.743876 C348.399844,433.846837 424.728884,386.096569 424.728884,378.517161 C424.728884,374.727457 416.08786,366.390108 406.006667,358.810701 C375.042999,337.588359 257.669099,341.378063 176.299462,366.390108 C0.598653477,420.203903 -121.095759,495.997981 -204.625652,602.10969 C-262.952559,676.387886 -290.3158,738.539029 -291.035885,797.65841 C-291.755971,851.472205 -280.954691,871.178665 -241.350001,889.369243 C-211.826504,903.770118 -102.373542,899.980414 -46.9269751,882.547776 Z M1105.92956,842.376915 C1219.70303,748.392259 1218.26286,750.666081 1206.7415,716.558747 L1197.38039,687.756997 L1105.20947,769.614601 C1054.8035,814.333107 1009.43813,856.77779 1005.83771,864.357198 C997.196682,878.000132 1009.43813,900.738355 1026.00009,900.738355 C1030.3206,900.738355 1067.04495,874.210428 1105.92956,842.376915 Z M214.463982,766.582838 C215.904152,760.519312 210.14347,756.729608 198.622106,756.729608 C180.619974,756.729608 174.859291,764.309015 184.940485,774.920186 C192.141338,782.499594 210.863555,777.194009 214.463982,766.582838 Z M503.938265,730.959621 C637.874127,655.165544 642.194639,648.344077 564.425428,644.554373 L512.579288,642.280551 L492.4169,678.661708 C461.453233,732.475503 459.292977,741.570792 473.694683,741.570792 C480.17545,741.570792 493.857071,737.023148 503.938265,730.959621 Z M296.553704,668.050537 C356.320782,621.81615 452.092125,487.660632 436.250248,470.985935 C434.089992,468.712113 366.401976,500.545626 286.47251,542.990309 C205.822958,584.677052 121.572981,627.879676 98.5302517,638.490847 C51.7247084,661.22907 48.124282,674.872004 88.4490577,681.693471 C103.570849,683.967293 117.252469,688.514938 120.13281,690.78876 C122.293066,693.820523 155.416989,696.094346 192.861423,696.094346 C259.829355,696.094346 261.269525,695.336405 296.553704,668.050537 Z M1357.95941,603.625571 C1402.6047,554.359421 1440.04913,505.09327 1440.04913,495.997981 C1440.04913,486.902692 1409.08546,508.125033 1357.23932,552.085598 C1290.27139,609.689097 1285.95088,615.752623 1296.03207,634.701143 C1300.35259,643.796432 1306.11327,650.617899 1309.71369,650.617899 C1312.59404,650.617899 1334.91668,629.395557 1357.95941,603.625571 Z M849.5792,593.0144 C849.5792,586.192933 844.538603,582.403229 837.33775,583.919111 C819.335618,587.708815 817.175362,605.141453 834.457409,605.141453 C843.098432,605.141453 849.5792,600.593808 849.5792,593.0144 Z" id="Shape" stroke="none" fill="#0E0E0E" fill-rule="nonzero" mask="url(#mask-4)" transform="translate(1344.346555, 930.635618) scale(-1, 1) rotate(-180.000000) translate(-1344.346555, -930.635618) "></path>
                        </g>
                    </g>
                    <rect id="Gradient-Fade" fill="url(#linearGradient-5)" mask="url(#mask-2)" x="-0.598467704" y="203.808792" width="1442" height="114.218286"></rect>
                </g>
            </g>
        </g>
    </g>
</svg>