<?xml version="1.0" encoding="UTF-8"?>
<svg width="652px" height="78px" viewBox="0 0 652 78" version="1.1" xmlns="http://www.w3.org/2000/svg" xmlns:xlink="http://www.w3.org/1999/xlink">
    <title>stamped-logo@1x</title>
    <g id="Blog-Logo" stroke="none" stroke-width="1" fill="none" fill-rule="evenodd">
        <g id="Stamped-Wordmark" transform="translate(-214.000000, -501.000000)">
            <g id="stamped-logo" transform="translate(214.031406, 501.166992)">
                <path d="M38.0810547,0 C40.945638,0 43.8907878,0.143229167 46.9165039,0.4296875 C49.9422201,0.716145833 52.9231771,1.11897786 55.859375,1.63818359 C58.7955729,2.15738932 61.6333008,2.75716146 64.3725586,3.4375 C67.1118164,4.11783854 69.6451823,4.83398438 71.9726562,5.5859375 L71.9726562,5.5859375 L71.9726562,22.6660156 L71.6665587,22.5188586 C70.3104489,21.8752408 68.5684059,21.1544364 66.4404297,20.3564453 C64.148763,19.4970703 61.5527344,18.6824544 58.6523438,17.9125977 C55.7519531,17.1427409 52.6009115,16.4982096 49.1992188,15.9790039 C45.797526,15.4597982 42.3063151,15.2001953 38.7255859,15.2001953 C35.8610026,15.2001953 33.4171549,15.2897135 31.394043,15.46875 C29.370931,15.6477865 27.6700846,15.8805339 26.2915039,16.1669922 C24.9129232,16.4534505 23.8208008,16.784668 23.0151367,17.1606445 C22.2094727,17.5366211 21.5917969,17.9215495 21.1621094,18.3154297 C20.7324219,18.7093099 20.4549154,19.1031901 20.3295898,19.4970703 C20.2042643,19.8909505 20.1416016,20.2490234 20.1416016,20.5712891 C20.1416016,21.6455078 20.6787109,22.5854492 21.7529297,23.3911133 C22.8271484,24.1967773 24.2952474,24.9129232 26.1572266,25.5395508 C28.0192057,26.1661784 30.1855469,26.7569987 32.65625,27.3120117 C35.1269531,27.8670247 37.7498372,28.4399414 40.5249023,29.0307617 C43.2999674,29.621582 46.1645508,30.2661133 49.1186523,30.9643555 C52.0727539,31.6625977 54.9373372,32.4772135 57.7124023,33.4082031 C60.4874674,34.3391927 63.1103516,35.4223633 65.5810547,36.6577148 C68.0517578,37.8930664 70.218099,39.3343099 72.0800781,40.9814453 C73.9420573,42.6285807 75.4101562,44.5263672 76.484375,46.6748047 C77.5585938,48.8232422 78.0957031,51.2760417 78.0957031,54.0332031 C78.0957031,57.578125 77.4690755,60.6217448 76.2158203,63.1640625 C74.9625651,65.7063802 73.2885742,67.8548177 71.1938477,69.609375 C69.0991211,71.3639323 66.6731771,72.7693685 63.9160156,73.8256836 C61.1588542,74.8819987 58.2674154,75.6966146 55.2416992,76.2695312 C52.2159831,76.8424479 49.1544596,77.2184245 46.0571289,77.3974609 C42.9597982,77.5764974 40.0146484,77.6660156 37.2216797,77.6660156 C29.9169922,77.6660156 23.1583659,77.0662435 16.9458008,75.8666992 C10.7332357,74.6671549 5.24576823,73.1722005 0.483398438,71.3818359 L0.483398438,71.3818359 L0.483398438,53.7646484 L1.18888734,54.1493941 C5.92340701,56.6875709 11.2831334,58.6898562 17.2680664,60.15625 C23.5522461,61.6959635 30.2750651,62.4658203 37.4365234,62.4658203 C41.6617839,62.4658203 45.1082357,62.2420247 47.7758789,61.7944336 C50.4435221,61.3468424 52.5292969,60.7739258 54.0332031,60.0756836 C55.5371094,59.3774414 56.5576172,58.6165365 57.0947266,57.7929688 C57.6318359,56.969401 57.9003906,56.1816406 57.9003906,55.4296875 C57.9003906,54.2480469 57.3632812,53.2185872 56.2890625,52.3413086 C55.2148438,51.4640299 53.7467448,50.6941732 51.8847656,50.0317383 C50.0227865,49.3693034 47.8564453,48.7605794 45.3857422,48.2055664 C42.9150391,47.6505534 40.2921549,47.0955404 37.5170898,46.5405273 C34.7420247,45.9855143 31.8863932,45.3857422 28.9501953,44.7412109 C26.0139974,44.0966797 23.1583659,43.3357747 20.3833008,42.4584961 C17.6082357,41.5812174 14.9853516,40.5607096 12.5146484,39.3969727 C10.0439453,38.2332357 7.87760417,36.8546549 6.015625,35.2612305 C4.15364583,33.667806 2.68554688,31.8237305 1.61132812,29.7290039 C0.537109375,27.6342773 0,25.2083333 0,22.4511719 C0,19.1927083 0.572916667,16.3818359 1.71875,14.0185547 C2.86458333,11.6552734 4.4132487,9.64111328 6.36474609,7.97607422 C8.31624349,6.31103516 10.5721029,4.9593099 13.1323242,3.92089844 C15.6925456,2.88248698 18.3870443,2.07682292 21.2158203,1.50390625 C24.0445964,0.930989583 26.9091797,0.537109375 29.8095703,0.322265625 C32.7099609,0.107421875 35.4671224,0 38.0810547,0 Z M169.673125,1.93359375 L169.673125,17.9931641 L138.305938,17.9931641 L138.305938,75.7324219 L118.37918,75.7324219 L118.37918,17.9931641 L87.0657031,17.9931641 L87.0657031,1.93359375 L169.673125,1.93359375 Z M214.997617,1.93359375 L253.615781,75.7324219 L231.379453,75.7324219 L199.27633,8.20259375 L196.67033,1.93359375 L214.997617,1.93359375 Z M289.656094,1.93359375 L319.465664,57.7929688 L349.275234,1.93359375 L376.238125,1.93359375 L376.238125,75.7324219 L356.418789,75.7324219 L356.418789,23.9013672 L329.026211,75.7324219 L309.905117,75.7324219 L282.512539,23.9013672 L282.512539,75.7324219 L262.585781,75.7324219 L262.585781,1.93359375 L289.656094,1.93359375 Z M438.22082,1.93359375 L438.926068,1.93709664 C444.063636,1.98847232 448.447694,2.60498047 452.078242,3.78662109 C455.873815,5.02197266 458.962194,6.7586263 461.343379,8.99658203 C463.724564,11.2345378 465.452266,13.8932292 466.526484,16.9726562 C467.600703,20.0520833 468.137813,23.4358724 468.137813,27.1240234 C468.137813,30.8121745 467.600703,34.2049154 466.526484,37.3022461 C465.452266,40.3995768 463.724564,43.0672201 461.343379,45.3051758 C458.962194,47.5431315 455.873815,49.288737 452.078242,50.5419922 C448.447694,51.740758 444.063636,52.3662011 438.926068,52.4183213 L438.22082,52.421875 L405.134883,52.421875 L405.134883,75.7324219 L385.208125,75.7324219 L385.208125,1.93359375 L438.22082,1.93359375 Z M551.819727,1.93359375 L551.819727,17.6708984 L497.57168,17.6708984 L497.57168,29.8632812 L549.026758,29.8632812 L549.026758,45.6005859 L497.57168,45.6005859 L497.57168,59.9951172 L552.57168,59.9951172 L552.57168,75.7324219 L477.107813,75.7324219 L477.107813,1.93359375 L551.819727,1.93359375 Z M608.270195,1.93359375 L609.369716,1.94003018 C613.021468,1.98293975 616.540052,2.24039714 619.925469,2.71240234 C623.649427,3.23160807 627.131686,4.0641276 630.372246,5.20996094 C633.612806,6.35579427 636.557956,7.86865234 639.207695,9.74853516 C641.857435,11.628418 644.122246,13.9379883 646.002129,16.6772461 C647.882012,19.4165039 649.341159,22.6123047 650.37957,26.2646484 C651.417982,29.9169922 651.937187,34.0885417 651.937187,38.7792969 C651.937187,43.5058594 651.417982,47.7042643 650.37957,51.3745117 C649.341159,55.0447591 647.882012,58.2405599 646.002129,60.9619141 C644.122246,63.6832682 641.866387,65.9928385 639.234551,67.890625 C636.602715,69.7884115 633.675469,71.3102214 630.452812,72.4560547 C627.230156,73.601888 623.756849,74.4344076 620.032891,74.9536133 C616.647474,75.4256185 613.12889,75.6830759 609.477138,75.7259854 L608.377617,75.7324219 L561.54168,75.7324219 L561.54168,1.93359375 L608.270195,1.93359375 Z M606.22918,17.9931641 L581.468437,17.9931641 L581.468437,59.6728516 L606.22918,59.6728516 C610.919935,59.6728516 614.894544,59.2521159 618.153008,58.4106445 C621.411471,57.5691732 624.052259,56.2801107 626.075371,54.543457 C628.098483,52.8068034 629.566582,50.6315104 630.479668,48.0175781 C631.392754,45.4036458 631.849297,42.3242188 631.849297,38.7792969 C631.849297,35.234375 631.392754,32.1549479 630.479668,29.5410156 C629.566582,26.9270833 628.098483,24.769694 626.075371,23.0688477 C624.052259,21.3680013 621.411471,20.0968424 618.153008,19.2553711 C614.894544,18.4138997 610.919935,17.9931641 606.22918,17.9931641 Z M433.923945,17.6708984 L405.134883,17.6708984 L405.134883,36.6845703 L433.923945,36.6845703 C436.537878,36.6845703 438.740026,36.5323893 440.530391,36.2280273 C442.320755,35.9236654 443.770951,35.4044596 444.880977,34.6704102 C445.991003,33.9363607 446.787715,32.9785156 447.271113,31.796875 C447.754512,30.6152344 447.996211,29.1650391 447.996211,27.4462891 C447.996211,25.7275391 447.754512,24.2504883 447.271113,23.0151367 C446.787715,21.7797852 445.991003,20.7682292 444.880977,19.9804688 C443.770951,19.1927083 442.320755,18.6108398 440.530391,18.2348633 C438.740026,17.8588867 436.537878,17.6708984 433.923945,17.6708984 Z M207.75627,4.83300781 C205.388252,4.83300781 203.468594,6.75266586 203.468594,9.12068406 C203.468594,11.4887023 205.388252,13.4083603 207.75627,13.4083603 C210.124288,13.4083603 212.043946,11.4887023 212.043946,9.12068406 C212.043946,6.75266586 210.124288,4.83300781 207.75627,4.83300781 Z" id="Combined-Shape" fill="#FFFFFF" fill-rule="nonzero"></path>
                <path d="M178.379453,76.4335938 L197.535773,44.7104416 L193.469076,37.0324197 L201.695166,21.8135249 L195.761289,8.93359375 L189.551643,19.6422181 L160.57584,68.8983902 C159.175686,71.2785223 159.970115,74.34305 162.350247,75.7432043 C163.118654,76.1952333 163.993946,76.4335938 164.885451,76.4335938 L178.379453,76.4335938 L178.379453,76.4335938 Z" id="Path" fill="#DDC686"></path>
            </g>
        </g>
    </g>
</svg>