<?xml version="1.0" encoding="UTF-8"?>
<svg width="30px" height="24px" viewBox="0 0 30 24" version="1.1" xmlns="http://www.w3.org/2000/svg" xmlns:xlink="http://www.w3.org/1999/xlink">
    <!-- Generator: Sketch 63.1 (92452) - https://sketch.com -->
    <title>twitter</title>
    <desc>Created with Sketch.</desc>
    <g id="Page-1" stroke="none" stroke-width="1" fill="none" fill-rule="evenodd">
        <g id="twitter" fill="#FFFFFF" fill-rule="nonzero">
            <path d="M29.3333333,2.75555556 C28.2666667,3.2 27.2,3.55555556 25.9555556,3.64444444 C27.2,2.93333333 28.0888889,1.77777778 28.5333333,0.444444444 C27.3777778,1.15555556 26.1333333,1.6 24.8,1.86666667 C23.7333333,0.711111111 22.2222222,0 20.6222222,0 C17.4222222,0 14.7555556,2.57777778 14.7555556,5.86666667 C14.7555556,6.31111111 14.8444444,6.75555556 14.9333333,7.2 C10.0444444,6.93333333 5.77777778,4.62222222 2.84444444,1.06666667 C2.31111111,1.95555556 2.04444444,2.93333333 2.04444444,4 C2.04444444,6.04444444 3.11111111,7.82222222 4.62222222,8.88888889 C3.64444444,8.88888889 2.75555556,8.62222222 1.95555556,8.17777778 L1.95555556,8.26666667 C1.95555556,11.1111111 4,13.4222222 6.66666667,13.9555556 C6.13333333,14.0444444 5.68888889,14.1333333 5.15555556,14.1333333 C4.8,14.1333333 4.44444444,14.1333333 4.08888889,14.0444444 C4.8,16.3555556 7.02222222,18.0444444 9.51111111,18.1333333 C7.55555556,19.7333333 4.97777778,20.6222222 2.22222222,20.6222222 C1.77777778,20.6222222 1.24444444,20.6222222 0.8,20.5333333 C3.46666667,22.1333333 6.57777778,23.1111111 9.86666667,23.1111111 C20.6222222,23.1111111 26.4888889,14.2222222 26.4888889,6.48888889 L26.4888889,5.77777778 C27.5555556,4.88888889 28.5333333,3.91111111 29.3333333,2.75555556 L29.3333333,2.75555556 Z" id="Path"></path>
        </g>
    </g>
</svg>