<?xml version="1.0" encoding="UTF-8"?>
<svg width="176px" height="64px" viewBox="0 0 176 64" version="1.1" xmlns="http://www.w3.org/2000/svg" xmlns:xlink="http://www.w3.org/1999/xlink">
    <!-- Generator: Sketch 49.2 (51160) - http://www.bohemiancoding.com/sketch -->
    <title>10.02 Logo 2 (White)</title>
    <desc>Created with Sketch.</desc>
    <defs></defs>
    <g id="10.02-Logo-2-(White)" stroke="none" stroke-width="1" fill="none" fill-rule="evenodd">
        <path d="M147.774221,42.4856194 C148.321474,39.7227072 148.972907,36.8312416 149.72853,33.8111783 L148.34184,33.7239383 C147.294114,33.6657781 146.569961,33.5058397 146.169359,33.2441185 C145.768758,32.9823973 145.56846,32.6479808 145.56846,32.2408589 C145.56846,31.6010959 145.768758,30.9322629 146.169359,30.2343396 C146.569961,29.5364164 147.201669,29.2456194 148.064502,29.36194 C148.55755,29.4201002 149.035183,29.4637198 149.497415,29.4927999 C149.959647,29.5218801 150.43728,29.5364199 150.930328,29.5364199 C151.854792,26.3376051 152.856281,23.1969977 153.934823,20.1145035 C155.013364,17.0320092 156.061075,14.2112785 157.077986,11.6522267 C158.094897,9.09317483 159.034755,6.89765761 159.897589,5.06560914 C160.760423,3.23356068 161.438353,1.9685938 161.931401,1.27067058 C162.424449,0.514587082 163.256454,0.136551006 164.427443,0.136551006 C165.413538,0.136551006 166.445841,0.311029195 167.524383,0.659990808 C168.602925,1.00895242 169.542783,1.45968774 170.343986,2.0122103 C171.145189,2.56473285 171.699859,3.21902606 172.008014,3.97510956 C172.316169,4.73119305 172.192909,5.5163449 171.63823,6.33058867 C171.268444,6.79587082 170.729181,7.77004071 170.020425,9.25312756 C169.311669,10.7362144 168.495071,12.5246159 167.570606,14.6183855 C166.646142,16.7121552 165.660061,19.0530709 164.612335,21.6412029 C163.564608,24.2293348 162.547712,26.8901272 161.561617,29.6236599 L164.150105,29.6236599 C164.51989,29.6236599 164.766411,29.8417576 164.889672,30.2779596 C165.012934,30.7141616 165.028342,31.1939767 164.935895,31.7174191 C164.843449,32.2408615 164.627744,32.7352164 164.288774,33.2004985 C163.949803,33.6657807 163.502985,33.927498 162.948307,33.9856582 C162.455259,34.0438185 161.962219,34.087438 161.469171,34.1165182 C160.976123,34.1455983 160.452268,34.1892179 159.897589,34.2473781 C159.034755,36.6319491 158.26438,38.9437852 157.586439,41.1829555 C156.908499,43.4221259 156.338421,45.5013243 155.876188,47.4206131 C155.413956,49.339902 155.090398,51.0265245 154.905505,52.4805312 C154.720613,53.934538 154.751428,55.0395665 154.997951,55.79565 C155.121213,56.1446116 155.367734,56.3481695 155.737519,56.4063298 C156.107305,56.46449 156.44627,56.4063306 156.754425,56.2318498 C157.432366,55.8247279 158.233556,55.0831956 159.158021,54.0072307 C160.082486,52.9312657 161.068566,51.6662988 162.116293,50.2122921 C163.164019,48.7582854 164.227137,47.158902 165.305679,45.4140939 C166.384221,43.6692858 167.401117,41.9535836 168.356397,40.2669359 C169.311677,38.5802881 170.174498,36.9663648 170.944885,35.4251177 C171.715272,33.8838706 172.316165,32.5607443 172.747582,31.4556992 C172.870844,31.1648978 173.117364,31.0049595 173.48715,30.9758794 C173.856935,30.9467992 174.242123,31.0049586 174.642725,31.1503593 C175.043326,31.29576 175.382291,31.4993179 175.65963,31.7610391 C175.93697,32.0227603 176.044822,32.2990174 175.983191,32.5898187 C175.613406,33.1132612 175.043328,34.2037499 174.272941,35.8613175 C173.502553,37.5188852 172.578103,39.467225 171.499561,41.7063953 C170.421019,43.9455657 169.234641,46.2864814 167.94039,48.7292127 C166.64614,51.1719439 165.290279,53.4401604 163.872767,55.5339301 C162.455254,57.6276998 161.037763,59.3579418 159.620251,60.7247081 C158.202739,62.0914744 156.816063,62.803927 155.460181,62.8620873 C152.871681,62.9784079 150.837889,62.3386545 149.358746,60.942808 C147.879603,59.5469616 146.985967,57.5404624 146.677812,54.9232503 C146.562535,53.9876919 146.514099,52.9687137 146.532506,51.866311 C145.797977,53.1011477 145.045216,54.2800637 144.274216,55.4030701 C142.856704,57.4677597 141.408398,59.2125416 139.929255,60.6374682 C138.450112,62.0623947 137.001806,62.8330067 135.584293,62.9493273 C133.119055,63.1819684 131.208523,62.542215 129.852642,61.030048 C128.496761,59.517881 127.788015,57.5113818 127.726384,55.0104903 C127.171705,55.9992149 126.555405,56.9588449 125.877464,57.8894092 C125.199524,58.8199735 124.459963,59.6487449 123.65876,60.3757483 C122.857558,61.1027516 122.010145,61.6988854 121.116496,62.1641676 C120.222847,62.6294497 119.344618,62.8620873 118.481785,62.8620873 C117.742213,62.8620873 116.941023,62.7457685 116.078189,62.5131274 C115.215356,62.2804864 114.38335,61.8442909 113.582147,61.2045279 C112.780945,60.564765 112.103014,59.6342146 111.548336,58.412849 C111.092803,57.4097964 110.803544,56.1321729 110.680553,54.5799515 C109.274627,56.0434283 107.776606,57.3646733 106.186468,58.5437089 C104.029384,60.1431163 101.687442,61.4371629 99.1605728,62.4258875 C96.633703,63.4146121 93.8911661,63.9380466 90.9328795,63.9962069 C87.4815453,64.0543672 84.4462656,63.4436935 81.8269494,62.1641676 C79.2076332,60.8846417 77.0197667,59.1980192 75.263284,57.1042495 C73.5068014,55.0104798 72.1817555,52.6404844 71.2881064,49.9941922 C70.6747812,48.1780007 70.2574117,46.3686766 70.0359932,44.5661944 C69.2848485,45.8451169 68.4593657,47.1801563 67.5595303,48.5713363 C66.4008681,50.3626726 65.1312892,52.153982 63.7507555,53.9453183 C62.3702218,55.7366546 60.9034267,57.3651177 59.3503263,58.8307564 C57.7972259,60.2963952 56.1948448,61.4944788 54.5431348,62.4250431 C52.8914248,63.3556074 51.2274136,63.8441463 49.5510513,63.8906745 C48.2198223,63.8906745 47.0118735,63.6231413 45.9271684,63.0880668 C44.8424634,62.5529924 43.8933607,61.8085521 43.0798319,60.8547237 C42.3814298,60.0358766 41.8193001,59.0970229 41.3934307,58.0381415 C40.2228439,59.5103407 39.0100249,60.7632544 37.7549428,61.7969153 C36.3990615,62.9135925 35.0555265,63.5649777 33.7242976,63.7510906 C32.4423734,63.844147 31.3823367,63.751092 30.5441555,63.4719227 C29.7059743,63.1927534 29.0280438,62.750742 28.5103437,62.1458752 C27.9926435,61.5410084 27.6228633,60.8198319 27.4009918,59.982324 C27.1791203,59.1448161 27.0681862,58.2375296 27.0681862,57.260437 C27.0681862,55.7715342 27.3023804,54.1314392 27.7707757,52.3401029 C28.2391711,50.5487666 28.6952334,48.7690891 29.1389764,47.0010169 C29.4348051,45.7447551 29.4964351,44.8723642 29.3238684,44.3838179 C29.1513017,43.8952716 28.8431515,43.7091616 28.3994085,43.8254821 C27.9556655,43.9418027 27.4502991,44.3023909 26.8832942,44.9072577 C26.3162893,45.5121245 25.810923,46.2798285 25.36718,47.2103928 C24.923437,48.1409571 24.4550487,49.1878263 23.9620009,50.3510317 C23.4689532,51.514237 22.9882388,52.7123206 22.5198434,53.9453183 C22.0514481,55.178316 21.6323638,56.3763996 21.262578,57.5396049 C20.8927922,58.7028103 20.6092939,59.7264157 20.4120748,60.6104518 C20.2148557,61.4944879 19.7957714,62.2854557 19.1548094,62.9833789 C18.5138473,63.6813021 17.6263747,63.9372035 16.4923648,63.7510906 C16.0979266,63.7045624 15.7404724,63.5417161 15.4199913,63.2625468 C15.0995103,62.9833775 14.8406641,62.6576849 14.643445,62.2854591 C14.4462259,61.9132334 14.2983138,61.5177495 14.1997042,61.0989956 C14.1010947,60.6802417 14.0517907,60.2847578 14.0517907,59.912532 C14.0517907,59.5325314 14.0686514,59.1169212 14.1023731,58.6657004 C13.1487248,59.9965211 12.1950847,61.1216752 11.2414325,62.0411872 C10.1074227,63.1346003 8.9980819,63.7045624 7.91337684,63.7510906 C5.84257629,63.844147 4.21554311,63.3323443 3.03222851,62.2156672 C1.84891391,61.09899 1.13400539,59.4937907 0.887481515,57.400021 C0.640957639,55.3993077 0.776543737,52.9217175 1.29424388,49.9671758 C1.81194402,47.0126341 2.4898745,43.8603949 3.32805568,40.5103634 L2.21870379,40.4405714 C1.38052261,40.3940432 0.801200192,40.2660925 0.480719154,40.0567155 C0.160238116,39.8473386 0,39.5798053 0,39.2541078 C0,38.7422975 0.160238116,38.207231 0.480719154,37.6488924 C0.801200192,37.0905539 1.30656656,36.8579163 1.99683341,36.9509727 C2.39127161,36.9975009 2.77337789,37.0323966 3.1431637,37.0556607 C3.51294951,37.0789248 3.89505579,37.0905567 4.28949399,37.0905567 C5.02906562,34.5315048 5.8302562,32.0190189 6.69308976,29.5530235 C7.55592332,27.0870281 8.39409193,24.8304435 9.20762072,22.7832021 C10.0211495,20.7359606 10.7730361,18.9795468 11.4633029,17.5139081 C12.1535698,16.0482693 12.6959141,15.0362958 13.0903523,14.4779572 C13.4847905,13.8730904 14.150395,13.5706615 15.0871858,13.5706615 C15.8760622,13.5706615 16.7019048,13.7102441 17.5647383,13.9894134 C18.4275719,14.2685827 19.1794584,14.6291709 19.8204205,15.071189 C20.4613826,15.513207 20.9051189,16.0366416 21.1516428,16.6415084 C21.3981667,17.2463752 21.2995586,17.8744967 20.8558156,18.5258917 C20.559987,18.8981174 20.1285766,19.6774533 19.5615717,20.8639228 C18.9945668,22.0503923 18.3412883,23.4811134 17.6017167,25.1561292 C16.8621451,26.8311449 16.0732805,28.7038775 15.2350993,30.774383 C14.3969182,32.8448886 13.5834016,34.9735225 12.7945252,37.1603486 L14.8653154,37.1603486 C15.161144,37.1603486 15.3583602,37.3348268 15.4569697,37.6837884 C15.5555793,38.03275 15.5679053,38.4166021 15.4939481,38.835356 C15.419991,39.2541099 15.2474268,39.6495938 14.9762506,40.0218196 C14.7050743,40.3940453 14.34762,40.6034191 13.9038771,40.6499473 C13.5094389,40.6964755 13.1150066,40.7313712 12.7205684,40.7546353 C12.3261302,40.7778994 11.9070459,40.812795 11.4633029,40.8593232 C10.7730361,42.7669801 10.1567356,44.6164489 9.61438308,46.4077851 C9.07203055,48.1991214 8.61596823,49.8624802 8.24618241,51.3979113 C7.8763966,52.9333424 7.61755041,54.2826404 7.46963609,55.4458457 C7.32172176,56.6090511 7.34637378,57.4930739 7.54359288,58.0979407 C7.64220243,58.37711 7.83941857,58.5399563 8.13524722,58.5864845 C8.43107587,58.6330128 8.70224807,58.5864852 8.94877194,58.4469006 C9.49112447,58.1212031 10.1320769,57.5279772 10.8716486,56.6672053 C11.6112202,55.8064333 12.4000848,54.7944598 13.2382659,53.6312544 C14.0325895,52.5289134 14.8379716,51.3221236 15.654434,50.0108521 C16.0029799,48.5181049 16.3932243,46.9564949 16.8251704,45.3260095 C17.6386992,42.2551474 18.5631498,39.0912762 19.5985501,35.8343011 C20.6339504,32.5773261 21.6693352,29.5181418 22.7047354,26.6566566 C23.7401357,23.7951714 24.7138904,21.2826854 25.6260287,19.1191234 C26.5381671,16.9555614 27.3147056,15.4317853 27.9556677,14.5477492 C28.3501059,13.9428824 29.0403624,13.6404535 30.0264579,13.6404535 C30.8153343,13.6404535 31.6411769,13.7800361 32.5040105,14.0592054 C33.3668441,14.3383746 34.1187306,14.6989629 34.7596927,15.1409809 C35.4006548,15.582999 35.8443911,16.1064336 36.0909149,16.7113004 C36.3374388,17.3161672 36.2388308,17.9442886 35.7950878,18.5956836 C35.4992591,19.0144376 34.9692407,19.9915154 34.2050167,21.5269465 C33.4407927,23.0623776 32.5656461,24.9118464 31.5795506,27.0754084 C30.5934551,29.2389704 29.5703963,31.6002419 28.5103437,34.1592938 C27.450291,36.7183456 26.4765363,39.2308315 25.5890504,41.6968269 C26.0327933,41.0919601 26.5997897,40.3824155 27.2900566,39.5681717 C27.9803234,38.753928 28.769188,37.9862239 29.656674,37.2650366 C30.5441599,36.5438493 31.4932626,35.9506234 32.5040105,35.4853413 C33.5147584,35.0200591 34.5378171,34.8572128 35.5732174,34.9967974 C36.9537511,35.1363821 38.0507659,35.822663 38.8642947,37.0556607 C39.6778235,38.2886584 39.7394535,39.9752809 39.0491867,42.1155788 C38.753358,42.9996148 38.4205558,44.0115883 38.05077,45.1515296 C37.6809841,46.2914709 37.3481819,47.3034444 37.0523533,48.1874805 C36.3620864,50.0951373 35.745786,51.9097105 35.2034334,53.6312544 C34.6610809,55.3527984 34.3899087,56.7486239 34.3899087,57.8187728 C34.3899087,57.9583575 34.4392127,58.1328357 34.5378223,58.3422126 C34.6364318,58.5515896 34.808996,58.6562765 35.0555198,58.6562765 C35.449958,58.6562765 36.1648666,58.2026332 37.2002668,57.295333 C38.1705252,56.4451154 39.2814796,55.2374096 40.5331597,53.6721832 C40.5299349,53.5431503 40.5283225,53.4131874 40.5283225,53.2822945 C40.5283225,51.3281095 40.8364727,49.2460031 41.4527824,47.0359129 C42.0690921,44.8258227 42.9688908,42.8018757 44.1522054,40.9640112 C45.33552,39.1261467 46.777663,37.5907386 48.4786778,36.3577409 C50.1796925,35.1247432 52.1395279,34.5082536 54.3582428,34.5082536 C55.2457288,34.5082536 56.1455274,34.6594681 57.0576657,34.9619015 C57.9698041,35.2643349 58.7709947,35.7179782 59.4612615,36.3228449 C60.1515284,36.9277117 60.7308508,37.7070477 61.1992461,38.6608761 C61.6676415,39.6147045 61.9018357,40.7429968 61.9018357,42.0457868 C61.8032261,44.5117822 61.2485557,46.5589929 60.2378078,48.1874805 C59.2270599,49.815968 57.9821331,51.1187385 56.5029898,52.095831 C55.0238465,53.0729235 53.4584434,53.7592044 51.8067334,54.1546942 C50.1550235,54.550184 48.6389244,54.747926 47.2583907,54.747926 C47.1597811,55.3527928 47.1967592,55.9692824 47.3693259,56.5974133 C47.5418926,57.2255442 47.8130648,57.7838744 48.1828506,58.2724207 C48.5526364,58.7609669 49.0210247,59.1564508 49.5880297,59.4588842 C50.1550346,59.7613176 50.808313,59.912532 51.5478847,59.912532 C52.8298088,59.912532 54.2842779,59.3542018 55.9113355,58.2375247 C57.538393,57.1208475 59.2024042,55.5970713 60.903419,53.6661504 C62.6044337,51.7352295 64.2930969,49.4786449 65.9694593,46.896329 C67.3721738,44.7355479 68.6713073,42.4526297 69.8668865,40.0475261 C69.9468606,37.3369372 70.2819299,34.5893323 70.8720995,31.804659 C71.6116711,28.3150429 72.6901969,24.9563378 74.1077092,21.7284429 C75.5252214,18.5005479 77.2354552,15.4907992 79.2384617,12.6991063 C81.2414682,9.90741336 83.4601498,7.5228781 85.894573,5.54542896 C88.3289963,3.56797982 90.9482732,2.08491521 93.7524823,1.09619064 C96.5566914,0.107466073 99.499526,-0.212410607 102.581074,0.136551006 C104.121849,0.311031812 105.647192,0.776306984 107.157151,1.53239048 C108.66711,2.28847397 110.022971,3.27718371 111.224775,4.49854936 C112.426578,5.719915 113.397252,7.13028037 114.136823,8.72968776 C114.876395,10.3290952 115.246175,12.0302575 115.246175,13.8332258 C115.246175,16.2759571 114.737727,18.1806774 113.720816,19.5474437 C112.703905,20.91421 111.471304,21.8883799 110.022977,22.4699826 C108.574649,23.0515853 107.095528,23.3278424 105.585569,23.2987623 C104.07561,23.2696821 102.827602,23.0806641 101.841507,22.7317025 C100.670518,22.3827409 100.054218,21.9174657 99.9925867,21.335863 C99.9309557,20.7542603 100.208291,20.1435866 100.824601,19.5038237 C101.687434,18.5150991 102.380772,17.3082916 102.904635,15.8833651 C103.428499,14.4584385 103.690426,13.1353122 103.690426,11.9139466 C103.690426,11.2160233 103.567166,10.5181106 103.320642,9.82018735 C103.074118,9.12226412 102.688931,8.54067016 102.165067,8.07538801 C101.641204,7.61010586 101.009496,7.31930887 100.269925,7.20298834 C99.530353,7.0866678 98.6675324,7.23206629 97.6814369,7.63918817 C95.462722,8.80239355 93.413523,10.7216536 91.5337785,13.397026 C89.6540339,16.0723984 88.0516528,19.0530674 86.7265869,22.3391226 C85.4015211,25.6251778 84.3692179,29.0420424 83.6296462,32.5898187 C82.8900746,36.1375951 82.5819244,39.3654417 82.7051863,42.2734551 C82.8284483,44.3090645 83.1982285,46.286484 83.8145382,48.2057729 C84.4308479,50.1250617 85.309076,51.8116842 86.449249,53.2656909 C87.5894219,54.7196977 89.0069129,55.8101863 90.7017646,56.5371897 C92.3966162,57.2641931 94.3533701,57.4241314 96.572085,57.0170095 C99.3454786,56.4935671 101.949348,55.3594589 104.383771,53.6146508 C106.748109,51.9200749 108.981613,49.9100854 111.084349,47.5846251 C111.141382,47.2435023 111.203599,46.8980318 111.270998,46.5482135 C111.764045,43.9891616 112.395753,41.4737678 113.16614,39.0019563 C113.936528,36.5301449 114.753126,34.2764683 115.615959,32.2408589 C116.478793,30.2052495 117.249168,28.6931052 117.927109,27.7043806 C118.789943,26.715656 119.899283,26.2213012 121.255165,26.2213012 C122.179629,26.2213012 123.10408,26.3521598 124.028544,26.613881 C124.953009,26.8756022 125.738792,27.2390984 126.385917,27.7043806 C127.033042,28.1696627 127.449045,28.7657966 127.633938,29.4927999 C127.818831,30.2198033 127.633941,31.0485747 127.079262,31.979139 C126.524583,32.9678636 125.831245,34.3491492 124.999227,36.1230374 C124.167209,37.8969256 123.350611,39.8307255 122.549409,41.9244952 C121.748206,44.0182649 121.008645,46.1120032 120.330705,48.2057729 C119.652764,50.2995425 119.221354,52.1606432 119.036461,53.7891307 C118.789937,55.3012977 119.02105,56.2027684 119.729806,56.4935697 C120.438562,56.7843711 121.31679,56.0573786 122.364517,54.3125705 C123.165719,53.0330446 124.013132,51.3755018 124.906781,49.3398924 C125.80043,47.304283 126.694066,45.1960049 127.587715,43.0149948 C128.481364,40.8339847 129.344185,38.6966269 130.176203,36.6028572 C131.008221,34.5090876 131.701559,32.735226 132.256238,31.2812192 C132.564392,30.4088152 132.841728,29.6527431 133.088252,29.0129801 C133.334775,28.3732171 133.550481,27.9370217 133.735373,27.7043806 C134.413314,26.715656 135.461025,26.2213012 136.878537,26.2213012 C137.803002,26.2213012 138.74286,26.3230801 139.69814,26.526641 C140.65342,26.730202 141.470018,27.0355388 142.147959,27.4426607 C142.825899,27.8497826 143.288125,28.3732171 143.534649,29.0129801 C143.781172,29.6527431 143.657912,30.4378949 143.164865,31.3684592 C142.610186,32.2990235 141.947663,33.5639904 141.177276,35.1633978 C140.406889,36.7628052 139.621106,38.5075871 138.819903,40.3977958 C138.0187,42.2880045 137.309955,44.2072646 136.693645,46.1556336 C136.077335,48.1040026 135.645925,49.9214838 135.399401,51.6081316 C135.399401,51.7826124 135.368586,52.1170289 135.306955,52.6113912 C135.245324,53.1057535 135.214509,53.6146482 135.214509,54.1380906 C135.214509,54.661533 135.291547,55.1268082 135.445624,55.5339301 C135.599702,55.941052 135.861629,56.1736896 136.231415,56.2318498 C136.847725,56.2318498 137.710546,55.7956543 138.819903,54.9232503 C139.92926,54.0508463 141.223491,52.6259411 142.702635,50.6484919 C144.181778,48.6710428 145.784159,46.1120293 147.509826,42.9713748 C147.597798,42.8112699 147.685929,42.6493515 147.774221,42.4856194 Z M53.7665885,40.9989072 C53.3228455,41.2315483 52.8051531,41.6968234 52.2134958,42.3947467 C51.6218385,43.0926699 51.0301901,43.9417971 50.4385328,44.9421537 C49.8468755,45.9425103 49.3045311,47.035907 48.8114833,48.2223765 C48.3184356,49.4088459 47.9486553,50.6069295 47.7021314,51.8166631 C48.5403126,51.7236067 49.3908072,51.397914 50.2536408,50.8395755 C51.1164744,50.2812369 51.9053389,49.594956 52.6202582,48.7807122 C53.3351774,47.9664685 53.9391518,47.0359181 54.4321996,45.9890333 C54.9252473,44.9421485 55.2210716,43.8836474 55.3196811,42.8134985 C55.3689859,42.2551599 55.3320079,41.8480441 55.2087459,41.592139 C55.085484,41.3362338 54.9375719,41.1501237 54.7650052,41.0338032 C54.5924385,40.9174826 54.4198743,40.8709551 54.2473076,40.8942192 C54.0747409,40.9174833 53.9145028,40.952379 53.7665885,40.9989072 Z" id="Combined-Shape" fill="#FFFFFF"></path>
    </g>
</svg>